<svg width="172" height="141" viewBox="0 0 172 141" fill="none" xmlns="http://www.w3.org/2000/svg">
<path d="M10.464 131L6.624 124.328H4.536V131H1.8V114.32H7.56C8.84 114.32 9.92 114.544 10.8 114.992C11.696 115.44 12.36 116.04 12.792 116.792C13.24 117.544 13.464 118.384 13.464 119.312C13.464 120.4 13.144 121.392 12.504 122.288C11.88 123.168 10.912 123.768 9.6 124.088L13.728 131H10.464ZM4.536 122.144H7.56C8.584 122.144 9.352 121.888 9.864 121.376C10.392 120.864 10.656 120.176 10.656 119.312C10.656 118.448 10.4 117.776 9.888 117.296C9.376 116.8 8.6 116.552 7.56 116.552H4.536V122.144ZM22.1001 116.528V121.424H27.8601V123.656H22.1001V128.768H28.5801V131H19.3641V114.296H28.5801V116.528H22.1001ZM44.406 127.592H37.422L36.222 131H33.366L39.342 114.296H42.51L48.486 131H45.606L44.406 127.592ZM43.638 125.36L40.926 117.608L38.19 125.36H43.638ZM52.5724 122.624C52.5724 120.992 52.9484 119.528 53.7004 118.232C54.4684 116.936 55.5004 115.928 56.7964 115.208C58.1084 114.472 59.5404 114.104 61.0924 114.104C62.8684 114.104 64.4444 114.544 65.8204 115.424C67.2124 116.288 68.2204 117.52 68.8444 119.12H65.5564C65.1244 118.24 64.5244 117.584 63.7564 117.152C62.9884 116.72 62.1004 116.504 61.0924 116.504C59.9884 116.504 59.0044 116.752 58.1404 117.248C57.2764 117.744 56.5964 118.456 56.1004 119.384C55.6204 120.312 55.3804 121.392 55.3804 122.624C55.3804 123.856 55.6204 124.936 56.1004 125.864C56.5964 126.792 57.2764 127.512 58.1404 128.024C59.0044 128.52 59.9884 128.768 61.0924 128.768C62.1004 128.768 62.9884 128.552 63.7564 128.12C64.5244 127.688 65.1244 127.032 65.5564 126.152H68.8444C68.2204 127.752 67.2124 128.984 65.8204 129.848C64.4444 130.712 62.8684 131.144 61.0924 131.144C59.5244 131.144 58.0924 130.784 56.7964 130.064C55.5004 129.328 54.4684 128.312 53.7004 127.016C52.9484 125.72 52.5724 124.256 52.5724 122.624ZM85.2229 114.32V116.552H80.7829V131H78.0469V116.552H73.5829V114.32H85.2229ZM108.844 114.32V116.552H101.764V121.472H107.284V123.704H101.764V131H99.0281V114.32H108.844ZM121.388 131.168C119.836 131.168 118.404 130.808 117.092 130.088C115.796 129.352 114.764 128.336 113.996 127.04C113.244 125.728 112.868 124.256 112.868 122.624C112.868 120.992 113.244 119.528 113.996 118.232C114.764 116.936 115.796 115.928 117.092 115.208C118.404 114.472 119.836 114.104 121.388 114.104C122.956 114.104 124.388 114.472 125.684 115.208C126.996 115.928 128.028 116.936 128.78 118.232C129.532 119.528 129.908 120.992 129.908 122.624C129.908 124.256 129.532 125.728 128.78 127.04C128.028 128.336 126.996 129.352 125.684 130.088C124.388 130.808 122.956 131.168 121.388 131.168ZM121.388 128.792C122.492 128.792 123.476 128.544 124.34 128.048C125.204 127.536 125.876 126.816 126.356 125.888C126.852 124.944 127.1 123.856 127.1 122.624C127.1 121.392 126.852 120.312 126.356 119.384C125.876 118.456 125.204 117.744 124.34 117.248C123.476 116.752 122.492 116.504 121.388 116.504C120.284 116.504 119.3 116.752 118.436 117.248C117.572 117.744 116.892 118.456 116.396 119.384C115.916 120.312 115.676 121.392 115.676 122.624C115.676 123.856 115.916 124.944 116.396 125.888C116.892 126.816 117.572 127.536 118.436 128.048C119.3 128.544 120.284 128.792 121.388 128.792ZM142.608 131.168C141.056 131.168 139.624 130.808 138.312 130.088C137.016 129.352 135.984 128.336 135.216 127.04C134.464 125.728 134.088 124.256 134.088 122.624C134.088 120.992 134.464 119.528 135.216 118.232C135.984 116.936 137.016 115.928 138.312 115.208C139.624 114.472 141.056 114.104 142.608 114.104C144.176 114.104 145.608 114.472 146.904 115.208C148.216 115.928 149.248 116.936 150 118.232C150.752 119.528 151.128 120.992 151.128 122.624C151.128 124.256 150.752 125.728 150 127.04C149.248 128.336 148.216 129.352 146.904 130.088C145.608 130.808 144.176 131.168 142.608 131.168ZM142.608 128.792C143.712 128.792 144.696 128.544 145.56 128.048C146.424 127.536 147.096 126.816 147.576 125.888C148.072 124.944 148.32 123.856 148.32 122.624C148.32 121.392 148.072 120.312 147.576 119.384C147.096 118.456 146.424 117.744 145.56 117.248C144.696 116.752 143.712 116.504 142.608 116.504C141.504 116.504 140.52 116.752 139.656 117.248C138.792 117.744 138.112 118.456 137.616 119.384C137.136 120.312 136.896 121.392 136.896 122.624C136.896 123.856 137.136 124.944 137.616 125.888C138.112 126.816 138.792 127.536 139.656 128.048C140.52 128.544 141.504 128.792 142.608 128.792ZM161.668 114.32C163.444 114.32 164.996 114.664 166.324 115.352C167.668 116.024 168.7 117 169.42 118.28C170.156 119.544 170.524 121.024 170.524 122.72C170.524 124.416 170.156 125.888 169.42 127.136C168.7 128.384 167.668 129.344 166.324 130.016C164.996 130.672 163.444 131 161.668 131H156.22V114.32H161.668ZM161.668 128.768C163.62 128.768 165.116 128.24 166.156 127.184C167.196 126.128 167.716 124.64 167.716 122.72C167.716 120.784 167.196 119.272 166.156 118.184C165.116 117.096 163.62 116.552 161.668 116.552H158.956V128.768H161.668Z" fill="#BD1E51"/>
<circle cx="86" cy="50" r="47.5" fill="white" stroke="#BD1E51" stroke-width="5"/>
<path d="M98.625 72.8958H102.083C103.833 72.8958 105.271 71.5625 105.479 69.8542L108.917 35.5208H98.5V27.0833H94.3958V35.5208H84.0417L84.6667 40.3958C88.2292 41.375 91.5625 43.1458 93.5625 45.1042C96.5625 48.0625 98.625 51.125 98.625 56.125V72.8958ZM63.0833 70.8125V68.75H94.3958V70.8125C94.3958 71.9583 93.4583 72.8958 92.2917 72.8958H65.1875C64.0208 72.8958 63.0833 71.9583 63.0833 70.8125ZM94.3958 56.2292C94.3958 39.5625 63.0833 39.5625 63.0833 56.2292H94.3958ZM63.125 60.4167H94.375V64.5833H63.125V60.4167Z" fill="#BD1E51"/>
</svg>
